<svg width="85" height="30" viewBox="0 0 85 30" fill="none" xmlns="http://www.w3.org/2000/svg">
<path d="M12.16 29.4C9.94667 29.4 7.82667 28.96 5.8 28.08C3.77333 27.1733 1.98667 25.88 0.44 24.2L2.48 22.08C3.92 23.6267 5.45333 24.7867 7.08 25.56C8.73333 26.3333 10.4667 26.72 12.28 26.72C13.7467 26.72 15.04 26.4933 16.16 26.04C17.3067 25.56 18.2 24.9067 18.84 24.08C19.48 23.2267 19.8 22.2667 19.8 21.2C19.8 19.76 19.2933 18.6533 18.28 17.88C17.2933 17.1067 15.6533 16.5333 13.36 16.16L9.32 15.52C6.62667 15.0667 4.64 14.2667 3.36 13.12C2.08 11.9733 1.44 10.4133 1.44 8.44C1.44 6.89333 1.85333 5.53333 2.68 4.36C3.50667 3.18667 4.65333 2.28 6.12 1.64C7.61333 0.973332 9.33333 0.639998 11.28 0.639998C13.2533 0.639998 15.1867 0.959998 17.08 1.6C19 2.24 20.7467 3.16 22.32 4.36L20.56 6.76C17.4933 4.44 14.36 3.28 11.16 3.28C9.82667 3.28 8.65333 3.49333 7.64 3.92C6.62667 4.32 5.84 4.89333 5.28 5.64C4.72 6.36 4.44 7.21333 4.44 8.2C4.44 9.50667 4.88 10.5067 5.76 11.2C6.64 11.8933 8.09333 12.4 10.12 12.72L14.12 13.36C17.1867 13.8667 19.4133 14.7333 20.8 15.96C22.1867 17.16 22.88 18.8533 22.88 21.04C22.88 22.6667 22.4267 24.12 21.52 25.4C20.6133 26.6533 19.3467 27.64 17.72 28.36C16.12 29.0533 14.2667 29.4 12.16 29.4ZM26.5044 29V8.96H29.4644V29H26.5044ZM27.9844 5.12C27.451 5.12 26.9844 4.92 26.5844 4.52C26.1844 4.12 25.9844 3.65333 25.9844 3.12C25.9844 2.56 26.1844 2.09333 26.5844 1.72C26.9844 1.32 27.451 1.12 27.9844 1.12C28.5444 1.12 29.011 1.32 29.3844 1.72C29.7844 2.09333 29.9844 2.56 29.9844 3.12C29.9844 3.65333 29.7844 4.12 29.3844 4.52C29.011 4.92 28.5444 5.12 27.9844 5.12ZM34.5122 29V8.96H37.4722V11.32C39.0455 9.48 41.1522 8.56 43.7922 8.56C45.3122 8.56 46.6455 8.89333 47.7922 9.56C48.9655 10.2 49.8722 11.1067 50.5122 12.28C51.1789 13.4267 51.5122 14.7733 51.5122 16.32V29H48.5922V16.92C48.5922 15.1333 48.0855 13.7333 47.0722 12.72C46.0855 11.68 44.7255 11.16 42.9922 11.16C41.7922 11.16 40.7255 11.4267 39.7922 11.96C38.8589 12.4933 38.0855 13.2533 37.4722 14.24V29H34.5122Z" fill="white"/>
<path d="M58.7453 29.24C57.2253 29.24 55.9586 28.72 54.9453 27.68C53.932 26.64 53.4253 25.0133 53.4253 22.8C53.4253 20.8267 53.812 18.76 54.5853 16.6C55.3853 14.4133 56.5586 12.5733 58.1053 11.08C59.6786 9.56 61.5453 8.8 63.7053 8.8C64.7986 8.8 65.612 8.98667 66.1453 9.36C66.6786 9.73333 66.9453 10.2267 66.9453 10.84V11L68.9053 1.8L74.8253 0.999998L70.2253 22.6C70.1186 23 70.0653 23.4267 70.0653 23.88C70.0653 24.4133 70.1853 24.8 70.4253 25.04C70.692 25.2533 71.1186 25.36 71.7053 25.36C72.452 25.36 73.092 25.04 73.6253 24.4C74.1853 23.76 74.6253 22.9067 74.9453 21.84H76.6253C74.9986 26.6133 72.3186 29 68.5853 29C67.492 29 66.5986 28.7067 65.9053 28.12C65.2386 27.5333 64.8253 26.68 64.6653 25.56C63.972 26.6267 63.132 27.5067 62.1453 28.2C61.1853 28.8933 60.052 29.24 58.7453 29.24ZM61.3453 25.36C61.9853 25.36 62.6253 25.0667 63.2653 24.48C63.932 23.8933 64.3853 23.08 64.6253 22.04V21.84L66.5853 12.68C66.3453 11.7467 65.7986 11.28 64.9453 11.28C63.8786 11.28 62.9186 11.9067 62.0653 13.16C61.212 14.3867 60.5453 15.88 60.0653 17.64C59.5853 19.3733 59.3453 20.9067 59.3453 22.24C59.3453 23.5733 59.532 24.4267 59.9053 24.8C60.3053 25.1733 60.7853 25.36 61.3453 25.36ZM81.6409 6.84C80.7609 6.84 80.0143 6.53333 79.4009 5.92C78.7876 5.30667 78.4809 4.56 78.4809 3.68C78.4809 2.8 78.7876 2.05333 79.4009 1.44C80.0143 0.799998 80.7609 0.479998 81.6409 0.479998C82.5209 0.479998 83.2676 0.799998 83.8809 1.44C84.5209 2.05333 84.8409 2.8 84.8409 3.68C84.8409 4.56 84.5209 5.30667 83.8809 5.92C83.2676 6.53333 82.5209 6.84 81.6409 6.84ZM78.9209 29.24C77.6409 29.24 76.6009 28.84 75.8009 28.04C75.0276 27.24 74.6409 26.04 74.6409 24.44C74.6409 23.7733 74.7476 22.9067 74.9609 21.84L77.6809 9H83.4409L80.5609 22.6C80.4543 23 80.4009 23.4267 80.4009 23.88C80.4009 24.4133 80.5209 24.8 80.7609 25.04C81.0276 25.2533 81.4543 25.36 82.0409 25.36C82.5209 25.36 82.9476 25.28 83.3209 25.12C83.2143 26.4533 82.7343 27.48 81.8809 28.2C81.0543 28.8933 80.0676 29.24 78.9209 29.24Z" fill="#C80158"/>
</svg>
